<svg width="698" height="997" viewBox="0 0 698 997" fill="none" xmlns="http://www.w3.org/2000/svg">
<g id="heroObject">
<g id="carro" filter="url(#filter0_d_174_115)">
<g id="Vector 67">
<path d="M266.007 289.475C284.996 260.547 401.713 263.853 416.507 289.475C436.507 296.352 438.01 293.103 464.51 319.478C491.01 345.852 491.01 357.978 491.01 357.978C491.01 357.978 500.326 403.111 499.51 431.852C498.654 462.027 496.01 489.5 485.51 506.478V657.478C485.51 657.478 494.087 669.311 494.01 677.978C493.935 686.464 485.51 697.978 485.51 697.978V752.478C487.51 771.478 494.775 802.464 496.01 806.477C497.245 810.491 503.01 846.977 489.01 891.977C495.51 933.477 449.007 955.475 449.007 955.475C441.574 962.603 428.584 967.492 412.51 970.622C368.525 979.187 301.452 974.585 262.01 966.684C245.092 963.295 233.258 959.299 230.51 955.475C230.51 955.475 196.01 938.477 190.01 891.977C182.01 862.977 181.51 818.475 184.01 806.477C186.49 794.578 193.889 782.18 194.985 753.191L195.01 752.478C194.89 732.756 194.482 697.978 194.482 697.978C194.482 697.978 184.199 687.074 184.51 677.978C184.789 669.832 194.482 657.478 194.482 657.478L193.51 506.478C193.51 506.478 181.604 459.572 182.01 428.978C182.383 400.892 189.019 385.705 193.51 357.978C203.762 338.509 202.01 341.227 215.51 323.852C229.01 306.478 245.694 297.931 266.007 289.475Z" fill="#4DA6DD"/>
<path d="M266.007 289.475C284.996 260.547 401.713 263.853 416.507 289.475M266.007 289.475C181.995 430.47 204.913 491.015 207.506 496.977C212.508 508.477 237.507 590.975 237.507 590.975L239.749 794.977M266.007 289.475C245.694 297.931 229.01 306.478 215.51 323.852C202.01 341.227 203.762 338.509 193.51 357.978M266.007 289.475C247.018 318.403 222.01 338.352 193.51 357.978M266.007 289.475C266.007 289.475 294.01 277.353 339.51 276.353C385.01 275.353 416.507 289.475 416.507 289.475M416.507 289.475C459.51 370.478 489.01 447.977 474.507 492.975C462.28 530.91 446.007 590.975 446.007 590.975L442.42 794.977M416.507 289.475C420.514 297.535 483.01 353.852 491.01 357.978M416.507 289.475C436.507 296.352 438.01 293.103 464.51 319.478C491.01 345.852 491.01 357.978 491.01 357.978M442.007 818.475C442.007 818.475 453.282 866.623 460.507 897.475M442.007 818.475C361.993 846.337 317.646 846.631 240.007 818.475M442.007 818.475L442.42 794.977M460.507 897.475C424.01 941.477 273.51 952.477 221.007 897.475M460.507 897.475C459.267 908.968 462.462 921.425 460.507 933.646M449.007 955.475C449.007 955.475 495.51 933.477 489.01 891.977M449.007 955.475C441.574 962.603 428.584 967.492 412.51 970.622M449.007 955.475C456.206 948.467 459.314 941.101 460.507 933.646M230.51 955.475C230.51 955.475 196.01 938.477 190.01 891.977M230.51 955.475C233.258 959.299 245.092 963.295 262.01 966.684M230.51 955.475C225.607 948.652 223.158 940.738 221.961 932.352M221.007 897.475C228.427 866.623 240.007 818.475 240.007 818.475M221.007 897.475C221.007 908.947 220.351 921.075 221.961 932.352M240.007 818.475L239.749 794.977M491.01 357.978C491.01 357.978 487.658 449.266 485.51 506.478M491.01 357.978C491.01 357.978 500.326 403.111 499.51 431.852C498.654 462.027 496.01 489.5 485.51 506.478M485.51 506.478C485.51 566.228 485.51 657.478 485.51 657.478M485.51 752.478C486.877 806.956 487.643 837.499 489.01 891.977M485.51 752.478C487.51 771.478 494.775 802.464 496.01 806.477C497.245 810.491 503.01 846.977 489.01 891.977M485.51 752.478C485.51 731.194 485.51 697.978 485.51 697.978M489.01 891.977C460.507 867.977 442.42 794.977 442.42 794.977M190.01 891.977C191.963 837.499 193.058 806.956 195.01 752.478M190.01 891.977C229.063 863.977 239.749 794.977 239.749 794.977M190.01 891.977C182.01 862.977 181.51 818.475 184.01 806.477C186.51 794.48 194.01 781.978 195.01 752.478M195.01 752.478C194.89 732.756 194.482 697.978 194.482 697.978M193.51 506.478C193.51 506.478 193.51 415.971 193.51 357.978M193.51 506.478L194.482 657.478M193.51 506.478C193.51 506.478 181.604 459.572 182.01 428.978C182.383 400.892 189.019 385.705 193.51 357.978M485.51 697.978C485.51 697.978 493.935 686.464 494.01 677.978C494.087 669.311 485.51 657.478 485.51 657.478M485.51 697.978V687.852M485.51 657.478V665.852M194.482 657.478C194.482 657.478 184.789 669.832 184.51 677.978C184.199 687.074 194.482 697.978 194.482 697.978M194.482 657.478V665.852M194.482 697.978L194.616 687.852M262.01 966.684C262.01 966.684 246.96 959.682 239.01 952.852C231.112 946.066 221.961 932.352 221.961 932.352M262.01 966.684C301.452 974.585 368.525 979.187 412.51 970.622M412.51 970.622C412.51 970.622 431.637 961.412 442.01 952.852C450.042 946.224 460.507 933.646 460.507 933.646M485.51 687.852C485.51 687.852 489.51 681.423 489.51 676.852C489.51 672.281 485.51 665.852 485.51 665.852M485.51 687.852V665.852M194.482 665.852C194.482 665.852 189.99 672.215 190.01 676.852C190.03 681.509 194.616 687.852 194.616 687.852M194.482 665.852L194.616 687.852M255.51 806.477C251.062 828.977 430.51 831.977 427.01 806.477C409.286 677.344 431.01 614.176 423.007 609.475C391.51 590.975 257.863 600.478 257.007 609.475C254.01 640.978 264.01 763.477 255.51 806.477ZM260.51 849.977C254.314 848.379 260.513 871.98 265.01 886.977C268.79 899.584 404.014 902.98 416.01 886.977C425.51 874.305 428.51 848.129 421.51 849.977C359.01 866.477 276.01 853.977 260.51 849.977ZM242.01 823.852L226.01 897.475C226.01 897.475 258.51 929.852 340.01 929.852C432.12 929.852 455.01 897.475 455.01 897.475L440.01 823.852C440.01 823.852 378.812 844.428 340.01 844.352C301.592 844.277 242.01 823.852 242.01 823.852Z" stroke="black"/>
</g>
<g id="Vector 68">
<path d="M470.965 478.996L440.465 583.496C440.465 583.496 398.965 575.996 339.465 575.996C279.965 575.996 240.465 584.996 240.465 584.996L212.465 478.996C212.465 478.996 212.52 478.956 212.631 478.879C244.011 456.649 257.009 358.468 281.965 341.996C306.965 325.495 364.465 318.787 403.965 341.996C414.965 348.46 449.465 450.496 470.965 478.996Z" fill="#5A7EAC"/>
<path d="M451.965 580.996L473.465 488.996L473.143 508.996L484.465 512.496C484.465 512.496 501.509 522.578 503.965 533.496C505.036 538.259 505.55 541.495 503.965 545.996C502.379 550.497 472.781 531.496 472.781 531.496L470.198 691.996L469.965 706.496L468.54 714.996C468.54 714.996 465.965 788.495 455.965 789.996C445.965 791.497 446.531 721.496 446.531 721.496L444.465 706.496L444.793 700.996L451.965 580.996Z" fill="#5A7EAC"/>
<path d="M197.468 514.995L209.354 509.161L208.965 487.996L213.764 506.996L218.689 526.496L233.465 584.996L240.449 699.996L240.965 708.496L238.842 720.996C238.842 720.996 233.462 789.497 227.465 787.996C221.468 786.495 214.591 714.747 214.591 714.747L212.965 705.496L212.735 692.996L209.774 531.989C199.524 538.211 183.97 547.329 182.968 545.996C181.465 543.997 176.467 542.495 178.465 533.496C180.463 524.497 197.468 514.995 197.468 514.995Z" fill="#5A7EAC"/>
<path d="M212.465 478.996L240.465 584.996C240.465 584.996 279.965 575.996 339.465 575.996C398.965 575.996 440.465 583.496 440.465 583.496L470.965 478.996M212.465 478.996C243.965 456.996 256.965 358.497 281.965 341.996C306.965 325.495 364.465 318.787 403.965 341.996C414.965 348.46 449.465 450.496 470.965 478.996M212.465 478.996C212.465 478.996 245.965 454.495 341.965 454.495C435.965 454.495 470.965 478.996 470.965 478.996M226.05 503.996L245.965 575.996C319.044 566.994 360.577 566.721 435.965 575.996L455.88 503.996M226.05 503.996L219.965 481.996C266.465 448.995 433.965 454.495 461.965 481.996L455.88 503.996M226.05 503.996C313.464 476.544 363.769 476.358 455.88 503.996M469.965 706.496H444.465M469.965 706.496L468.54 714.996M469.965 706.496L470.198 691.996M444.465 706.496L446.531 721.496M444.465 706.496L444.793 700.996M446.531 721.496C446.531 721.496 445.965 791.497 455.965 789.996C465.965 788.495 468.54 714.996 468.54 714.996M446.531 721.496L468.54 714.996M470.198 691.996L444.793 700.996M470.198 691.996L472.781 531.496M444.793 700.996L451.965 580.996L473.465 488.996L473.143 508.996M473.143 508.996L484.465 512.496C484.465 512.496 501.509 522.578 503.965 533.496C505.036 538.259 505.55 541.495 503.965 545.996C502.379 550.497 472.781 531.496 472.781 531.496M473.143 508.996L472.781 531.496M213.764 506.996L197.468 514.995C197.468 514.995 180.463 524.497 178.465 533.496C176.467 542.495 181.465 543.997 182.968 545.996C184.47 547.995 218.689 526.496 218.689 526.496M212.965 705.496L240.965 708.496M212.965 705.496L214.591 714.747M212.965 705.496L212.735 692.996M240.965 708.496L238.842 720.996M240.965 708.496L240.449 699.996M238.842 720.996C238.842 720.996 233.462 789.497 227.465 787.996C221.468 786.495 214.591 714.747 214.591 714.747M238.842 720.996L214.591 714.747M212.735 692.996L208.965 487.996L233.465 584.996L240.449 699.996M212.735 692.996L240.449 699.996" stroke="black"/>
</g>
</g>
<g id="cabos" filter="url(#filter1_d_174_115)">
<path d="M485.5 636.5C599 636.5 560.768 407.291 659 507C725.5 574.5 651 256.5 589.5 171.5C539.87 102.905 518.5 73.4999 435.5 73.4999M215.5 73.4999C139.5 71.9997 10.1637 -8.14716 97 230.5C168.5 427 -92.9999 507 65.0001 489.5C140.171 481.174 104 633.5 194.5 633.5" stroke="#5A7EAC" stroke-width="8"/>
</g>
<g id="bateria">
<path id="Rectangle 80" d="M227 25C227 19.4772 231.477 15 237 15H426C431.523 15 436 19.4772 436 25V119C436 124.523 431.523 129 426 129H236.575C231.221 129 226.817 124.783 226.584 119.434L225.655 98.0713C225.56 95.8781 224.248 93.9219 222.254 93.002V93.002C220.257 92.08 218.943 90.1172 218.853 87.9188L217.716 60.2633C217.586 57.0982 219.435 54.1851 222.355 52.9558V52.9558C225.17 51.7707 227 49.014 227 45.96V25Z" fill="#4DA6DD"/>
<path id="Vector 72" d="M325 69.5L303.5 65L337 85V71L356 77L325 57.5V69.5Z" stroke="#FDC700" stroke-width="2" stroke-linecap="round"/>
<path id="Vector 71" d="M435.5 72V118.5C435.5 124.023 431.023 128.5 425.5 128.5H236C230.477 128.5 226 124.023 226 118.5V96.5C226 94.0147 223.985 92 221.5 92V92C219.015 92 217 89.9853 217 87.5V58C217 55.5147 219.015 53.5 221.5 53.5V53.5C223.985 53.5 226 51.4853 226 49V25C226 19.4772 230.477 15 236 15H418" stroke="#FDC700" stroke-width="7" stroke-linecap="round"/>
<g id="Ellipse 21" filter="url(#filter2_d_174_115)">
<circle cx="417" cy="15" r="4" fill="#FDC700"/>
</g>
</g>
</g>
<defs>
<filter id="filter0_d_174_115" x="160.3" y="255.3" width="362.37" height="741.623" filterUnits="userSpaceOnUse" color-interpolation-filters="sRGB">
<feFlood flood-opacity="0" result="BackgroundImageFix"/>
<feColorMatrix in="SourceAlpha" type="matrix" values="0 0 0 0 0 0 0 0 0 0 0 0 0 0 0 0 0 0 127 0" result="hardAlpha"/>
<feOffset dy="4"/>
<feGaussianBlur stdDeviation="8.6"/>
<feComposite in2="hardAlpha" operator="out"/>
<feColorMatrix type="matrix" values="0 0 0 0 0.993004 0 0 0 0 0.781945 0 0 0 0 0 0 0 0 1 0"/>
<feBlend mode="normal" in2="BackgroundImageFix" result="effect1_dropShadow_174_115"/>
<feBlend mode="normal" in="SourceGraphic" in2="effect1_dropShadow_174_115" result="shape"/>
</filter>
<filter id="filter1_d_174_115" x="0.527148" y="50.5816" width="697.351" height="602.718" filterUnits="userSpaceOnUse" color-interpolation-filters="sRGB">
<feFlood flood-opacity="0" result="BackgroundImageFix"/>
<feColorMatrix in="SourceAlpha" type="matrix" values="0 0 0 0 0 0 0 0 0 0 0 0 0 0 0 0 0 0 127 0" result="hardAlpha"/>
<feOffset dy="4"/>
<feGaussianBlur stdDeviation="4.4"/>
<feComposite in2="hardAlpha" operator="out"/>
<feColorMatrix type="matrix" values="0 0 0 0 0.396078 0 0 0 0 0.972549 0 0 0 0 0.956863 0 0 0 1 0"/>
<feBlend mode="normal" in2="BackgroundImageFix" result="effect1_dropShadow_174_115"/>
<feBlend mode="normal" in="SourceGraphic" in2="effect1_dropShadow_174_115" result="shape"/>
</filter>
<filter id="filter2_d_174_115" x="402.4" y="0.4" width="29.2" height="29.2" filterUnits="userSpaceOnUse" color-interpolation-filters="sRGB">
<feFlood flood-opacity="0" result="BackgroundImageFix"/>
<feColorMatrix in="SourceAlpha" type="matrix" values="0 0 0 0 0 0 0 0 0 0 0 0 0 0 0 0 0 0 127 0" result="hardAlpha"/>
<feMorphology radius="4" operator="dilate" in="SourceAlpha" result="effect1_dropShadow_174_115"/>
<feOffset/>
<feGaussianBlur stdDeviation="3.3"/>
<feComposite in2="hardAlpha" operator="out"/>
<feColorMatrix type="matrix" values="0 0 0 0 0.993004 0 0 0 0 0.781945 0 0 0 0 0 0 0 0 1 0"/>
<feBlend mode="normal" in2="BackgroundImageFix" result="effect1_dropShadow_174_115"/>
<feBlend mode="normal" in="SourceGraphic" in2="effect1_dropShadow_174_115" result="shape"/>
</filter>
</defs>
</svg>
